<?xml version="1.0" encoding="iso-8859-1"?>
<!-- Uploaded to: SVG Repo, www.svgrepo.com, Generator: SVG Repo Mixer Tools -->
<svg version="1.1" id="Layer_1" xmlns="http://www.w3.org/2000/svg" xmlns:xlink="http://www.w3.org/1999/xlink" 
	 viewBox="0 0 512 512" xml:space="preserve">
<polygon style="fill:#FFA733;" points="478.609,133.565 478.609,100.174 445.217,100.174 445.217,66.783 333.913,66.783 333.913,0 
	0,0 0,445.216 178.087,445.216 178.087,512 512,512 512,133.565 "/>
<polygon style="fill:#46F8FF;" points="478.609,133.565 478.609,100.174 445.217,100.174 445.217,66.783 178.087,66.781 
	178.087,512 512,512 512,300.522 512,300.522 512,133.565 "/>
<rect x="178.087" y="66.781" style="fill:#9BFBFF;" width="166.957" height="445.217"/>
<polygon style="fill:#00D7DF;" points="478.609,133.565 478.609,100.174 445.217,100.174 445.217,66.783 378.435,66.783 
	378.435,100.174 378.435,133.565 378.435,200.348 445.217,200.348 478.609,200.348 512,200.348 512,133.565 "/>
<rect x="77.913" style="fill:#FFDA44;" width="178.087" height="100.174"/>
<path d="M478.609,133.565v33.391h-66.783v-66.783h33.391v33.391H478.609v-33.391h-33.391V66.783H333.913V33.391l0,0V0l0,0h-33.391
	H256h-33.391H111.304H77.913H33.391H0v33.391v378.435v33.391h33.391h144.696v33.391V512h33.391h267.13H512v-33.391V200.348v-33.391
	v-33.391H478.609z M300.522,33.391v33.391H256V33.391H300.522z M222.609,33.391v33.391h-44.522h-66.783V33.391H222.609z
	 M33.391,411.826V33.391h44.522v33.391v33.391h33.391h66.783v311.652H33.391z M478.609,478.609h-267.13v-33.391v-33.391V100.174
	h11.13H256h44.522h33.391h44.522v66.783v33.391l0,0h33.391l0,0h66.783V478.609z"/>
</svg>